<svg xmlns="http://www.w3.org/2000/svg" viewBox="0 0 512 512" width="512" height="512" aria-label="Porthmos logo: a glowing blue strait flowing between dark layered land" xmlns:c2pa="http://c2pa.org/manifest"><metadata><c2pa:manifest>AAAWgmp1bWIAAAAeanVtZGMycGEAEQAQgAAAqgA4m3EDYzJwYQAAABZcanVtYgAAAEdqdW1kYzJtYQARABCAAACqADibcQN1cm46YzJwYTpjZTI2OTM0MC1mMjMzLTQ3Y2EtODJmNy1jYzJkZDNkZmU5MzYAAAADl2p1bWIAAAApanVtZGMyYXMAEQAQgAAAqgA4m3EDYzJwYS5hc3NlcnRpb25zAAAAALxqdW1iAAAARGp1bWRjYm9yABEAEIAAAKoAOJtxE2MycGEuaW5ncmVkaWVudC52MwAAAAAYYzJzaO3SGWLkoNLWh2xHH90Ak6YAAABwY2JvcqNpZGM6Zm9ybWF0bWltYWdlL3N2Zyt4bWxqaW5zdGFuY2VJRHgseG1wOmlpZDpkODIwODA3Yy1iNjE5LTQyNWYtYTVjZS1hNzdhNmM5OTBhZmJscmVsYXRpb25zaGlwaHBhcmVudE9mAAAB4mp1bWIAAABBanVtZGNib3IAEQAQgAAAqgA4m3ETYzJwYS5hY3Rpb25zLnYyAAAAABhjMnNoTT5ZcXNRAtpE53xkV0tXWAAAAZljYm9yomdhY3Rpb25zgqJmYWN0aW9ua2MycGEub3BlbmVkanBhcmFtZXRlcnOha2luZ3JlZGllbnRzgaJjdXJseC1zZWxmI2p1bWJmPWMycGEuYXNzZXJ0aW9ucy9jMnBhLmluZ3JlZGllbnQudjNkaGFzaFggbhrTeCoTFswILPCGbEfQYAvoNeAWL2uUUATtXVWzyEqkZmFjdGlvbngdY29tLmFudGhyb3BpYy5jbGF1ZGUucHJvdmlkZWRqcGFyYW1ldGVyc6F4H2NvbS5hbnRocm9waWMub3JpZ2luLWNvbmZpZGVuY2VndW5rbm93bmtkZXNjcmlwdGlvbnhmQ2xhdWRlIHByb3ZpZGVkIHRoaXMgZmlsZSBhdCB0aGUgcmVxdWVzdCBvZiBhIHVzZXIgYW5kIG1heSBoYXZlIGNyZWF0ZWQgb3IgbW9kaWZpZWQgdGhlIGZpbGUgY29udGVudHMubXNvZnR3YXJlQWdlbnShZG5hbWVmQ2xhdWRlcmFsbEFjdGlvbnNJbmNsdWRlZPUAAADIanVtYgAAAEBqdW1kY2JvcgARABCAAACqADibcRNjMnBhLmhhc2guZGF0YQAAAAAYYzJzaChcFimd8P1DhNseLfUhD/4AAACAY2JvcqVjYWxnZnNoYTI1NmNwYWRNAAAAAAAAAAAAAAAAAGRoYXNoWCBYrDeGkTayDZtCn+SjkOstmTl/RgW+/UcKKFi85xf/P2RuYW1lbmp1bWJmIG1hbmlmZXN0amV4Y2x1c2lvbnOBomVzdGFydBjqZmxlbmd0aBkeBAAAAj5qdW1iAAAAJ2p1bWRjMmNsABEAEIAAAKoAOJtxA2MycGEuY2xhaW0udjIAAAACD2Nib3KlY2FsZ2ZzaGEyNTZpc2lnbmF0dXJleE1zZWxmI2p1bWJmPS9jMnBhL3VybjpjMnBhOmNlMjY5MzQwLWYyMzMtNDdjYS04MmY3LWNjMmRkM2RmZTkzNi9jMnBhLnNpZ25hdHVyZWppbnN0YW5jZUlEeCx4bXA6aWlkOjc1NGMyMzkwLTEwNDItNDE1ZS1iM2M5LTgzOTlkYjU2NzI3MnJjcmVhdGVkX2Fzc2VydGlvbnODomN1cmx4LXNlbGYjanVtYmY9YzJwYS5hc3NlcnRpb25zL2MycGEuaW5ncmVkaWVudC52M2RoYXNoWCBuGtN4KhMWzAgs8IZsR9BgC+g14BYva5RQBO1dVbPISqJjdXJseCpzZWxmI2p1bWJmPWMycGEuYXNzZXJ0aW9ucy9jMnBhLmFjdGlvbnMudjJkaGFzaFggmS3EWeSikSlPuN48HVQvZgdx4U+uoyV3KWfbuBL/be+iY3VybHgpc2VsZiNqdW1iZj1jMnBhLmFzc2VydGlvbnMvYzJwYS5oYXNoLmRhdGFkaGFzaFggqAVBSMSBAQMZopOyHhn4KvT5RBbh574S9TJckBf5dQB0Y2xhaW1fZ2VuZXJhdG9yX2luZm+jZG5hbWVvQW50aHJvcGljIEZpbGVzZ3ZlcnNpb25lMS4wLjBrc3BlY1ZlcnNpb25lMi40LjAAABA4anVtYgAAAChqdW1kYzJjcwARABCAAACqADibcQNjMnBhLnNpZ25hdHVyZQAAABAIY2JvctKEWQISogEmGCFZAgowggIGMIIBjaADAgECAhRA5aAK7sI50L64g/oGQgU9Z1UTADAKBggqhkjOPQQDAzBJMRcwFQYDVQQKEw5BbnRocm9waWMsIFBCQzEuMCwGA1UEAxMlQW50aHJvcGljIENvbnRlbnQgQ3JlZGVudGlhbHMgUm9vdCBDQTAeFw0yNjA4MDcxODQzNTZaFw0yODA4MDYxOTQzNTZaMEQxFzAVBgNVBAoTDkFudGhyb3BpYywgUEJDMSkwJwYDVQQDEyBBbnRocm9waWMgQ2xhdWRlIENvbnRlbnQgU2lnbmluZzBZMBMGByqGSM49AgEGCCqGSM49AwEHA0IABJh6CmvLUBgFFNU0vUKlOVtE6djd17L5SuwX0LemFisBM3dkd/3cyjxFA3Qo5S46fX0/ihY0VZ7mfb9KF703t5OjWDBWMA4GA1UdDwEB/wQEAwIHgDAVBgNVHSUEDjAMBgorBgEEAYPoXgIBMAwGA1UdEwEB/wQCMAAwHwYDVR0jBBgwFoAUzlHiBIFOZFsj+OPEz5o+nMHXXMIwCgYIKoZIzj0EAwMDZwAwZAIwMXMdFJ4BetLLVY7ORuE9noqbbAZOZn/aArXyTwFAZfKrPzxF2vPoJNf1+UCdg1XGAjBwX1zd9WGqYkqmL5SFqw1QySjr1zJfpJM9+1rdDwSPLMOPOjKuiXjoU/pUUeG9RwmhY3BhZFkNngAAAAAAAAAAAAAAAAAAAAAAAAAAAAAAAAAAAAAAAAAAAAAAAAAAAAAAAAAAAAAAAAAAAAAAAAAAAAAAAAAAAAAAAAAAAAAAAAAAAAAAAAAAAAAAAAAAAAAAAAAAAAAAAAAAAAAAAAAAAAAAAAAAAAAAAAAAAAAAAAAAAAAAAAAAAAAAAAAAAAAAAAAAAAAAAAAAAAAAAAAAAAAAAAAAAAAAAAAAAAAAAAAAAAAAAAAAAAAAAAAAAAAAAAAAAAAAAAAAAAAAAAAAAAAAAAAAAAAAAAAAAAAAAAAAAAAAAAAAAAAAAAAAAAAAAAAAAAAAAAAAAAAAAAAAAAAAAAAAAAAAAAAAAAAAAAAAAAAAAAAAAAAAAAAAAAAAAAAAAAAAAAAAAAAAAAAAAAAAAAAAAAAAAAAAAAAAAAAAAAAAAAAAAAAAAAAAAAAAAAAAAAAAAAAAAAAAAAAAAAAAAAAAAAAAAAAAAAAAAAAAAAAAAAAAAAAAAAAAAAAAAAAAAAAAAAAAAAAAAAAAAAAAAAAAAAAAAAAAAAAAAAAAAAAAAAAAAAAAAAAAAAAAAAAAAAAAAAAAAAAAAAAAAAAAAAAAAAAAAAAAAAAAAAAAAAAAAAAAAAAAAAAAAAAAAAAAAAAAAAAAAAAAAAAAAAAAAAAAAAAAAAAAAAAAAAAAAAAAAAAAAAAAAAAAAAAAAAAAAAAAAAAAAAAAAAAAAAAAAAAAAAAAAAAAAAAAAAAAAAAAAAAAAAAAAAAAAAAAAAAAAAAAAAAAAAAAAAAAAAAAAAAAAAAAAAAAAAAAAAAAAAAAAAAAAAAAAAAAAAAAAAAAAAAAAAAAAAAAAAAAAAAAAAAAAAAAAAAAAAAAAAAAAAAAAAAAAAAAAAAAAAAAAAAAAAAAAAAAAAAAAAAAAAAAAAAAAAAAAAAAAAAAAAAAAAAAAAAAAAAAAAAAAAAAAAAAAAAAAAAAAAAAAAAAAAAAAAAAAAAAAAAAAAAAAAAAAAAAAAAAAAAAAAAAAAAAAAAAAAAAAAAAAAAAAAAAAAAAAAAAAAAAAAAAAAAAAAAAAAAAAAAAAAAAAAAAAAAAAAAAAAAAAAAAAAAAAAAAAAAAAAAAAAAAAAAAAAAAAAAAAAAAAAAAAAAAAAAAAAAAAAAAAAAAAAAAAAAAAAAAAAAAAAAAAAAAAAAAAAAAAAAAAAAAAAAAAAAAAAAAAAAAAAAAAAAAAAAAAAAAAAAAAAAAAAAAAAAAAAAAAAAAAAAAAAAAAAAAAAAAAAAAAAAAAAAAAAAAAAAAAAAAAAAAAAAAAAAAAAAAAAAAAAAAAAAAAAAAAAAAAAAAAAAAAAAAAAAAAAAAAAAAAAAAAAAAAAAAAAAAAAAAAAAAAAAAAAAAAAAAAAAAAAAAAAAAAAAAAAAAAAAAAAAAAAAAAAAAAAAAAAAAAAAAAAAAAAAAAAAAAAAAAAAAAAAAAAAAAAAAAAAAAAAAAAAAAAAAAAAAAAAAAAAAAAAAAAAAAAAAAAAAAAAAAAAAAAAAAAAAAAAAAAAAAAAAAAAAAAAAAAAAAAAAAAAAAAAAAAAAAAAAAAAAAAAAAAAAAAAAAAAAAAAAAAAAAAAAAAAAAAAAAAAAAAAAAAAAAAAAAAAAAAAAAAAAAAAAAAAAAAAAAAAAAAAAAAAAAAAAAAAAAAAAAAAAAAAAAAAAAAAAAAAAAAAAAAAAAAAAAAAAAAAAAAAAAAAAAAAAAAAAAAAAAAAAAAAAAAAAAAAAAAAAAAAAAAAAAAAAAAAAAAAAAAAAAAAAAAAAAAAAAAAAAAAAAAAAAAAAAAAAAAAAAAAAAAAAAAAAAAAAAAAAAAAAAAAAAAAAAAAAAAAAAAAAAAAAAAAAAAAAAAAAAAAAAAAAAAAAAAAAAAAAAAAAAAAAAAAAAAAAAAAAAAAAAAAAAAAAAAAAAAAAAAAAAAAAAAAAAAAAAAAAAAAAAAAAAAAAAAAAAAAAAAAAAAAAAAAAAAAAAAAAAAAAAAAAAAAAAAAAAAAAAAAAAAAAAAAAAAAAAAAAAAAAAAAAAAAAAAAAAAAAAAAAAAAAAAAAAAAAAAAAAAAAAAAAAAAAAAAAAAAAAAAAAAAAAAAAAAAAAAAAAAAAAAAAAAAAAAAAAAAAAAAAAAAAAAAAAAAAAAAAAAAAAAAAAAAAAAAAAAAAAAAAAAAAAAAAAAAAAAAAAAAAAAAAAAAAAAAAAAAAAAAAAAAAAAAAAAAAAAAAAAAAAAAAAAAAAAAAAAAAAAAAAAAAAAAAAAAAAAAAAAAAAAAAAAAAAAAAAAAAAAAAAAAAAAAAAAAAAAAAAAAAAAAAAAAAAAAAAAAAAAAAAAAAAAAAAAAAAAAAAAAAAAAAAAAAAAAAAAAAAAAAAAAAAAAAAAAAAAAAAAAAAAAAAAAAAAAAAAAAAAAAAAAAAAAAAAAAAAAAAAAAAAAAAAAAAAAAAAAAAAAAAAAAAAAAAAAAAAAAAAAAAAAAAAAAAAAAAAAAAAAAAAAAAAAAAAAAAAAAAAAAAAAAAAAAAAAAAAAAAAAAAAAAAAAAAAAAAAAAAAAAAAAAAAAAAAAAAAAAAAAAAAAAAAAAAAAAAAAAAAAAAAAAAAAAAAAAAAAAAAAAAAAAAAAAAAAAAAAAAAAAAAAAAAAAAAAAAAAAAAAAAAAAAAAAAAAAAAAAAAAAAAAAAAAAAAAAAAAAAAAAAAAAAAAAAAAAAAAAAAAAAAAAAAAAAAAAAAAAAAAAAAAAAAAAAAAAAAAAAAAAAAAAAAAAAAAAAAAAAAAAAAAAAAAAAAAAAAAAAAAAAAAAAAAAAAAAAAAAAAAAAAAAAAAAAAAAAAAAAAAAAAAAAAAAAAAAAAAAAAAAAAAAAAAAAAAAAAAAAAAAAAAAAAAAAAAAAAAAAAAAAAAAAAAAAAAAAAAAAAAAAAAAAAAAAAAAAAAAAAAAAAAAAAAAAAAAAAAAAAAAAAAAAAAAAAAAAAAAAAAAAAAAAAAAAAAAAAAAAAAAAAAAAAAAAAAAAAAAAAAAAAAAAAAAAAAAAAAAAAAAAAAAAAAAAAAAAAAAAAAAAAAAAAAAAAAAAAAAAAAAAAAAAAAAAAAAAAAAAAAAAAAAAAAAAAAAAAAAAAAAAAAAAAAAAAAAAAAAAAAAAAAAAAAAAAAAAAAAAAAAAAAAAAAAAAAAAAAAAAAAAAAAAAAAAAAAAAAAAAAAAAAAAAAAAAAAAAAAAAAAAAAAAAAAAAAAAAAAAAAAAAAAAAAAAAAAAAAAAAAAAAAAAAAAAAAAAAAAAAAAAAAAAAAAAAAAAAAAAAAAAAAAAAAAAAAAAAAAAAAAAAAAAAAAAAAAAAAAAAAAAAAAAAAAAAAAAAAAAAAAAAAAAAAAAAAAAAAAAAAAAAAAAAAAAAAAAAAAAAAAAAAAAAAAAAAAAAAAAAAAAAAAAAAAAAAAAAAAAAAAAAAAAAAAAAAAAAAAAAAAAAAAAAAAAAAAAAAAAAAAAAAAAAAAAAAAAAAAAAAAAAAAAAAAAAAAAAAAAAAAAAAAAAAAAAAAAAAAAAAAAAAAAAAAAAAAAAAAAAAAAAAAAAAAAAAAAAAAAAAAAAAAAAAAAAAAAAAAAAAAAAAAAAAAAAAAAAAAAAAAAAAAAAAAAAAAAAAAAAAAAAAAAAAAAAAAAAAAAAAAAAAAAAAAAAAAAAAAAAAAAAAAAAAAAAAAAAAAAAAAAAAAAAAAAAAAAAAAAAAAAAAAAAAAAAAAAAAAAAAAAAAAAAAAAAAAAAAAAAAAAAAAAAAAAAAAAAAAAAAAAAAAAAAAAAAAAAAAAAAAAAAAAAAAAAAAAAAAAAAAAAAAAAAAAAAAAAAAAAAAAAAAAAAAAAAAAAAAAAAAAAAAAAAAAAAAAAAAAAAAAAAAAAAAAAAAAAAAAAAAAAAAAAAAAAAAAAAAAAAAAAAAAAAAAAAAAAAAAAAAAAAAAAAAAAAAAAAAAAAAAAAAAAAAAAAAAAAAAAAAAAAAAAAAAAAAAAAAAAAAAAAAAAAAAAAAAAAAAAAAAAAAAAAAAAAAAAAAAAAAAAAAAAAAAAAAAAAAAAAAAAAAAAAAAAAAAAAAAAAAAAAAAAAAAAAAAAAAAAAAAAAAAAAAAAAAAAAAAAAAAAAAAAAAAAAAAAAAAAAAAAAAAAAAAAAAAAAAAAAAAAAAAAAAAAAAAAAAAAAAAAAAAAAAAAAAAAAAAAAAAAAAAAAAAAAAAAAAAAAAAAAAAAAAAAAAAAAAAAAAAAAAAAAAAAAAAAAAAAAAAAAAAAAAAAAAAAAAAAAAAAAAAAAAAAAAAAAAAAAAAAAAAAAAAAAAAAAAAAAAAAAAAAAAAAAAAAAAAAAAAAAAAAAAAAAAAAAAAAAAAAAAAAAAAAAAAAAAAAAAAAAAAAAAAAAAAAAAAAAAAAAAAAAAAAAAAAAAAAAAAAAAAAAAAAAAAAAAAAAAAAAAAAAAAAAAAAAAAAAAAAAAAAAAAAAAAAAAAAAAAAAAAAAAAAAAAAAAAAAAAAAAAAAAAAAAAAAAAAAAAAAAAAAAAAAAAAAAAAAAAAAAAAAAAAAAAAAAAAAAAAAAAAAAAAAAAAAAAAAAAAAAAAAAAAAAAAAAAAAAAAAAAAAAAAAAAAAAAAAAAAAAAAAAAAAAAAAAAAAAAAAAAAAAAAAAAPZYQAdjJKMGTSPh96ZEfY3Uxfae2J/sana0p+FrtOKHfkdEimzrjuK/+miyztOmptZ7xXvqhIkrZiTdn8wkzCyoeaI=</c2pa:manifest></metadata>
<defs>
<clipPath id="sq">
<rect x="0" y="0" width="512" height="512" rx="112">
</rect>
</clipPath>
<clipPath id="cl">
<path d="M 226.0 -12.0 C 226.1 -3.3 227.6 23.4 226.5 40.0 C 225.4 56.6 218.6 72.0 219.5 87.5 C 220.4 103.0 224.9 117.9 232.0 133.0 C 239.1 148.1 254.7 163.5 262.0 178.0 C 269.3 192.5 271.3 206.5 276.0 220.0 C 280.7 233.5 285.0 246.8 290.0 259.0 C 295.0 271.2 303.8 281.3 306.0 293.0 C 308.2 304.7 306.3 316.7 303.0 329.0 C 299.7 341.3 292.7 354.0 286.0 367.0 C 279.3 380.0 268.7 390.8 263.0 407.0 C 257.3 423.2 254.8 450.3 252.0 464.0 C 249.2 477.7 246.7 478.7 246.0 489.0 C 245.3 499.3 247.7 519.8 248.0 526.0 L -20 526 L -20 -12 Z">
</path>
</clipPath>
<clipPath id="cr">
<path d="M 226.0 -12.0 C 226.1 -3.3 227.6 23.4 226.5 40.0 C 225.4 56.6 218.6 72.0 219.5 87.5 C 220.4 103.0 224.9 117.9 232.0 133.0 C 239.1 148.1 254.7 163.5 262.0 178.0 C 269.3 192.5 271.3 206.5 276.0 220.0 C 280.7 233.5 285.0 246.8 290.0 259.0 C 295.0 271.2 303.8 281.3 306.0 293.0 C 308.2 304.7 306.3 316.7 303.0 329.0 C 299.7 341.3 292.7 354.0 286.0 367.0 C 279.3 380.0 268.7 390.8 263.0 407.0 C 257.3 423.2 254.8 450.3 252.0 464.0 C 249.2 477.7 246.7 478.7 246.0 489.0 C 245.3 499.3 247.7 519.8 248.0 526.0 L 532 526 L 532 -12 Z">
</path>
</clipPath>
<linearGradient id="bg" x1="0" y1="0" x2="0" y2="1">
<stop offset="0" stop-color="#2b2a30">
</stop>
<stop offset="1" stop-color="#101012">
</stop>
</linearGradient>
<linearGradient id="b" x1="0" y1="0" x2="0" y2="1">
<stop offset="0" stop-color="#34333a">
</stop>
<stop offset="0.3" stop-color="#1a1a1e">
</stop>
<stop offset="1" stop-color="#0f0f11">
</stop>
</linearGradient>
<linearGradient id="w" x1="0" y1="0" x2="0" y2="1">
<stop offset="0" stop-color="#4fe3ff">
</stop>
<stop offset="0.35" stop-color="#2fd8f8">
</stop>
<stop offset="0.75" stop-color="#1aa6f2">
</stop>
<stop offset="1" stop-color="#1668e6">
</stop>
</linearGradient>
<filter id="f1" x="-30%" y="-30%" width="160%" height="160%">
<feGaussianBlur stdDeviation="9">
</feGaussianBlur>
</filter>
</defs>
<g clip-path="url(#sq)">
<rect x="0" y="0" width="512" height="512" fill="url(#bg)">
</rect>
<g clip-path="url(#cl)">
<path d="M -20 150 C 60 110 150 150 225 95 L 532 532 L -20 532 Z" fill="url(#b)">
</path>
<path d="M -20 150 C 60 110 150 150 225 95" fill="none" stroke="#56555c" stroke-width="2" opacity="0.55">
</path>
<path d="M -20 262 C 70 210 170 240 262 200 L 532 532 L -20 532 Z" fill="url(#b)">
</path>
<path d="M -20 262 C 70 210 170 240 262 200" fill="none" stroke="#56555c" stroke-width="2" opacity="0.55">
</path>
<path d="M -20 380 C 80 318 170 330 285 290 L 532 532 L -20 532 Z" fill="url(#b)">
</path>
<path d="M -20 380 C 80 318 170 330 285 290" fill="none" stroke="#56555c" stroke-width="2" opacity="0.55">
</path>
<path d="M -20 480 C 60 430 140 450 230 400 L 532 532 L -20 532 Z" fill="url(#b)">
</path>
<path d="M -20 480 C 60 430 140 450 230 400" fill="none" stroke="#56555c" stroke-width="2" opacity="0.55">
</path>
</g>
<g clip-path="url(#cr)">
<path d="M 225 40 C 300 110 400 70 532 150 L 532 532 L -20 532 Z" fill="url(#b)">
</path>
<path d="M 225 40 C 300 110 400 70 532 150" fill="none" stroke="#56555c" stroke-width="2" opacity="0.55">
</path>
<path d="M 260 170 C 340 230 440 210 532 280 L 532 532 L -20 532 Z" fill="url(#b)">
</path>
<path d="M 260 170 C 340 230 440 210 532 280" fill="none" stroke="#56555c" stroke-width="2" opacity="0.55">
</path>
<path d="M 330 330 C 390 380 460 350 532 400 L 532 532 L -20 532 Z" fill="url(#b)">
</path>
<path d="M 330 330 C 390 380 460 350 532 400" fill="none" stroke="#56555c" stroke-width="2" opacity="0.55">
</path>
<path d="M 300 440 C 360 470 450 440 532 490 L 532 532 L -20 532 Z" fill="url(#b)">
</path>
<path d="M 300 440 C 360 470 450 440 532 490" fill="none" stroke="#56555c" stroke-width="2" opacity="0.55">
</path>
</g>
<path d="M 212 -12 C 211.8 -3.3 212.8 23.0 211 40 C 209.2 57.0 200.8 73.3 201 90 C 201.2 106.7 206.8 125.0 212 140 C 217.2 155.0 230.7 167.7 232 180 C 233.3 192.3 220.7 203.7 220 214 C 219.3 224.3 221.0 233.7 228 242 C 235.0 250.3 253.0 254.3 262 264 C 271.0 273.7 280.7 288.7 282 300 C 283.3 311.3 278.3 321.7 270 332 C 261.7 342.3 243.3 350.3 232 362 C 220.7 373.7 209.0 387.0 202 402 C 195.0 417.0 191.3 431.3 190 452 C 188.7 472.7 193.3 513.7 194 526 L 302 526 C 300.7 513.7 294.0 472.7 294 452 C 294.0 431.3 297.0 417.7 302 402 C 307.0 386.3 316.0 371.3 324 358 C 332.0 344.7 345.3 335.7 350 322 C 354.7 308.3 355.0 292.0 352 276 C 349.0 260.0 342.0 242.7 332 226 C 322.0 209.3 305.3 192.7 292 176 C 278.7 159.3 261.0 141.2 252 126 C 243.0 110.8 239.7 99.3 238 85 C 236.3 70.7 241.7 56.2 242 40 C 242.3 23.8 240.3 -3.3 240 -12 Z" fill="none" stroke="#1fc8ff" stroke-width="16" opacity="0.7" filter="url(#f1)" clip-path="url(#sq)">
</path>
<path d="M 212 -12 C 211.8 -3.3 212.8 23.0 211 40 C 209.2 57.0 200.8 73.3 201 90 C 201.2 106.7 206.8 125.0 212 140 C 217.2 155.0 230.7 167.7 232 180 C 233.3 192.3 220.7 203.7 220 214 C 219.3 224.3 221.0 233.7 228 242 C 235.0 250.3 253.0 254.3 262 264 C 271.0 273.7 280.7 288.7 282 300 C 283.3 311.3 278.3 321.7 270 332 C 261.7 342.3 243.3 350.3 232 362 C 220.7 373.7 209.0 387.0 202 402 C 195.0 417.0 191.3 431.3 190 452 C 188.7 472.7 193.3 513.7 194 526 L 302 526 C 300.7 513.7 294.0 472.7 294 452 C 294.0 431.3 297.0 417.7 302 402 C 307.0 386.3 316.0 371.3 324 358 C 332.0 344.7 345.3 335.7 350 322 C 354.7 308.3 355.0 292.0 352 276 C 349.0 260.0 342.0 242.7 332 226 C 322.0 209.3 305.3 192.7 292 176 C 278.7 159.3 261.0 141.2 252 126 C 243.0 110.8 239.7 99.3 238 85 C 236.3 70.7 241.7 56.2 242 40 C 242.3 23.8 240.3 -3.3 240 -12 Z" fill="url(#w)">
</path>
<ellipse cx="250" cy="438" rx="22" ry="17" transform="rotate(-25 250 438)" fill="#101012" stroke="#7fe7ff" stroke-width="3" stroke-opacity="0.5">
</ellipse>
</g>
<rect x="1" y="1" width="510" height="510" rx="111" fill="none" stroke="#ffffff" stroke-opacity="0.09" stroke-width="2">
</rect>
</svg>
